<svg id="Component_26_38" data-name="Component 26 – 38" xmlns="http://www.w3.org/2000/svg" width="60" height="60" viewBox="0 0 60 60">
  <g id="badge_1_" data-name="badge (1)">
    <path id="Path_15875" data-name="Path 15875" d="M34.121,2.142a5.034,5.034,0,0,0,6.242,1.672A5.034,5.034,0,0,1,47.5,7.934,5.034,5.034,0,0,0,52.067,12.5a5.033,5.033,0,0,1,4.119,7.136,5.035,5.035,0,0,0,1.673,6.242,5.034,5.034,0,0,1,0,8.24,5.035,5.035,0,0,0-1.673,6.242A5.034,5.034,0,0,1,52.067,47.5,5.034,5.034,0,0,0,47.5,52.068a5.033,5.033,0,0,1-7.136,4.119,5.035,5.035,0,0,0-6.242,1.673,5.034,5.034,0,0,1-8.24,0,5.035,5.035,0,0,0-6.242-1.673A5.033,5.033,0,0,1,12.5,52.068,5.034,5.034,0,0,0,7.934,47.5a5.034,5.034,0,0,1-4.12-7.136,5.034,5.034,0,0,0-1.672-6.242,5.034,5.034,0,0,1,0-8.24,5.034,5.034,0,0,0,1.672-6.242A5.034,5.034,0,0,1,7.934,12.5,5.034,5.034,0,0,0,12.5,7.934a5.034,5.034,0,0,1,7.136-4.12,5.034,5.034,0,0,0,6.242-1.672,5.034,5.034,0,0,1,8.24,0Zm0,0" transform="translate(-0.001 -0.001)" fill="#41b2ba"/>
    <path id="Path_15876" data-name="Path 15876" d="M105.8,82.64A23.163,23.163,0,1,1,82.64,59.477,23.163,23.163,0,0,1,105.8,82.64Zm0,0" transform="translate(-52.64 -52.64)" fill="#e4eaf7"/>
    <path id="Path_15877" data-name="Path 15877" d="M231.789,59.477a22.217,22.217,0,0,0-3.145.225,23.252,23.252,0,0,1,0,45.877,22.218,22.218,0,0,0,3.145.225c12.477,0,22.591-10.371,22.591-23.163s-10.115-23.163-22.591-23.163Zm0,0" transform="translate(-201.218 -52.64)" fill="#c3c8d0"/>
    <path id="Path_15878" data-name="Path 15878" d="M141.652,152.583l-5.337-6.369a1.711,1.711,0,0,0-1.31-.62H113.652a1.711,1.711,0,0,0-1.31.62L107,152.583a1.839,1.839,0,0,0-.424,1.108h0a1.639,1.639,0,0,0,.352,1.089l16.013,20.34a1.772,1.772,0,0,0,2.763,0l16.013-20.34a1.639,1.639,0,0,0,.352-1.089h0a1.839,1.839,0,0,0-.424-1.108Zm0,0" transform="translate(-94.328 -128.19)" fill="#6bd"/>
    <path id="Path_15879" data-name="Path 15879" d="M196.219,216.027l6.872,22.091,6.872-22.091Zm0,0" transform="translate(-173.091 -190.422)" fill="#99e2ff"/>
    <path id="Path_15880" data-name="Path 15880" d="M196.219,153.69l6.872-8.1,6.872,8.1Zm0,0" transform="translate(-173.091 -128.48)" fill="#52a7c9"/>
    <g id="Group_3024" data-name="Group 3024" transform="translate(12.824 17.253)">
      <path id="Path_15881" data-name="Path 15881" d="M320.51,147.274a1.689,1.689,0,0,0-.626-.482l-4.1,7.959h10.3a1.875,1.875,0,0,0-.41-1.108Zm0,0" transform="translate(-291.733 -146.793)" fill="#99e2ff"/>
      <path id="Path_15882" data-name="Path 15882" d="M112.161,147.274a1.689,1.689,0,0,1,.626-.482l4.1,7.959h-10.3a1.875,1.875,0,0,1,.41-1.108Zm0,0" transform="translate(-106.586 -146.793)" fill="#99e2ff"/>
    </g>
  </g>
  <g id="badge_4_" data-name="badge (4)">
    <path id="Path_15897" data-name="Path 15897" d="M139.061,148.431l-5.176-6.182a2.555,2.555,0,0,0-1.963-.921H111.208a2.555,2.555,0,0,0-1.962.921l-5.177,6.182a2.65,2.65,0,0,0-.61,1.585c0,.013,0,.026,0,.04a2.443,2.443,0,0,0,.524,1.573l15.534,19.745a2.626,2.626,0,0,0,4.1,0l15.534-19.745a2.443,2.443,0,0,0,.524-1.573c0-.013,0-.026,0-.04a2.644,2.644,0,0,0-.61-1.585Zm-1.659.757h-7.488l2.91-5.467Zm-25.448-6.135h7.688l-4.783,5.458Zm9.612.47,4.965,5.665H116.6Zm6.707,4.988-4.783-5.458h7.688Zm-17.966-4.79,2.91,5.467h-7.488Zm-4.649,7.191h8.364l1.755,5.463a.9.9,0,0,0,1.115.567.858.858,0,0,0,.586-1.08l-1.59-4.951h11.358l-5.679,17.679-3.016-9.388a.9.9,0,0,0-1.115-.567.857.857,0,0,0-.586,1.079l2.944,9.164Zm17.68,17.967,5.771-17.967h8.364Zm0,0" transform="translate(-91.565 -124.414)" fill="#635e5e"/>
    <path id="Path_15898" data-name="Path 15898" d="M57.547,25.281a4,4,0,0,1-1.331-4.969A5.765,5.765,0,0,0,51.5,12.139,4,4,0,0,1,47.86,8.5a5.765,5.765,0,0,0-8.173-4.719,4,4,0,0,1-4.969-1.331,5.765,5.765,0,0,0-9.437,0,4,4,0,0,1-4.969,1.331A5.765,5.765,0,0,0,12.14,8.5,4,4,0,0,1,8.5,12.139a5.765,5.765,0,0,0-4.719,8.173,4,4,0,0,1-1.331,4.969,5.765,5.765,0,0,0,0,9.437,4,4,0,0,1,1.331,4.969A5.765,5.765,0,0,0,8.5,47.86,4,4,0,0,1,12.14,51.5a5.765,5.765,0,0,0,8.173,4.719,4,4,0,0,1,4.969,1.331,5.765,5.765,0,0,0,9.437,0,4,4,0,0,1,4.969-1.331A5.765,5.765,0,0,0,47.86,51.5,4,4,0,0,1,51.5,47.86a5.765,5.765,0,0,0,4.719-8.173,4,4,0,0,1,1.331-4.969,5.765,5.765,0,0,0,0-9.437Zm-1.01,8a5.759,5.759,0,0,0-1.915,7.148,4.008,4.008,0,0,1-3.28,5.681,5.76,5.76,0,0,0-5.233,5.233,4.007,4.007,0,0,1-5.681,3.28,5.76,5.76,0,0,0-7.149,1.916,4.007,4.007,0,0,1-6.559,0,5.759,5.759,0,0,0-7.148-1.915,4.008,4.008,0,0,1-5.681-3.28,5.76,5.76,0,0,0-5.233-5.233,4.008,4.008,0,0,1-3.28-5.681,5.759,5.759,0,0,0-1.915-7.148,4.008,4.008,0,0,1,0-6.56,5.759,5.759,0,0,0,1.915-7.148,4.008,4.008,0,0,1,3.28-5.681A5.76,5.76,0,0,0,13.89,8.658a4.007,4.007,0,0,1,5.681-3.28A5.76,5.76,0,0,0,26.72,3.462a4.007,4.007,0,0,1,6.559,0,5.76,5.76,0,0,0,7.148,1.915,4.008,4.008,0,0,1,5.681,3.28,5.76,5.76,0,0,0,5.233,5.233,4.008,4.008,0,0,1,3.28,5.681,5.759,5.759,0,0,0,1.915,7.148,4.008,4.008,0,0,1,0,6.56Zm0,0" transform="translate(0 0)" fill="#635e5e"/>
    <path id="Path_15899" data-name="Path 15899" d="M104.107,263.7a.876.876,0,0,0-.95.792,20.8,20.8,0,0,1-6.838,13.763,22,22,0,0,1-29.384,0A20.793,20.793,0,0,1,60.1,264.489a.884.884,0,0,0-1.762.135,22.5,22.5,0,0,0,7.4,14.891,23.8,23.8,0,0,0,31.789,0,22.5,22.5,0,0,0,7.4-14.891.869.869,0,0,0-.812-.927Zm0,0" transform="translate(-51.626 -232.238)" fill="#635e5e"/>
    <path id="Path_15900" data-name="Path 15900" d="M59.146,79.635l.07,0a.875.875,0,0,0,.88-.794,20.8,20.8,0,0,1,6.839-13.76,22,22,0,0,1,29.374-.005,20.8,20.8,0,0,1,6.843,13.749.884.884,0,0,0,1.762-.137,22.5,22.5,0,0,0-7.4-14.876,23.8,23.8,0,0,0-31.779.006,22.5,22.5,0,0,0-7.4,14.888.869.869,0,0,0,.812.927Zm0,0" transform="translate(-51.626 -51.098)" fill="#635e5e"/>
  </g>
</svg>
