<svg id="Component_27_49" data-name="Component 27 – 49" xmlns="http://www.w3.org/2000/svg" width="60" height="60" viewBox="0 0 60 60">
  <g id="badge_3_" data-name="badge (3)">
    <path id="Path_15889" data-name="Path 15889" d="M34.121,2.142a5.034,5.034,0,0,0,6.242,1.672A5.034,5.034,0,0,1,47.5,7.934,5.034,5.034,0,0,0,52.067,12.5a5.033,5.033,0,0,1,4.119,7.136,5.035,5.035,0,0,0,1.673,6.242,5.034,5.034,0,0,1,0,8.24,5.035,5.035,0,0,0-1.673,6.242A5.034,5.034,0,0,1,52.067,47.5,5.034,5.034,0,0,0,47.5,52.068a5.033,5.033,0,0,1-7.136,4.119,5.035,5.035,0,0,0-6.242,1.673,5.034,5.034,0,0,1-8.24,0,5.035,5.035,0,0,0-6.242-1.673A5.033,5.033,0,0,1,12.5,52.068,5.034,5.034,0,0,0,7.934,47.5a5.034,5.034,0,0,1-4.12-7.136,5.034,5.034,0,0,0-1.672-6.242,5.034,5.034,0,0,1,0-8.24,5.034,5.034,0,0,0,1.672-6.242A5.034,5.034,0,0,1,7.934,12.5,5.034,5.034,0,0,0,12.5,7.934a5.034,5.034,0,0,1,7.136-4.12,5.034,5.034,0,0,0,6.242-1.672,5.034,5.034,0,0,1,8.24,0Zm0,0" transform="translate(-0.001 -0.001)" fill="#41b2ba"/>
    <path id="Path_15890" data-name="Path 15890" d="M229.54,2.109a4.938,4.938,0,0,0,6.123,1.64,4.971,4.971,0,0,1,1.4-.415,4.943,4.943,0,0,1-1.234-1.225,4.941,4.941,0,0,0-7.186-.972,4.983,4.983,0,0,1,.9.972Zm0,0" transform="translate(-201.765 -0.008)" fill="#41b2ba"/>
    <path id="Path_15891" data-name="Path 15891" d="M105.8,82.64A23.163,23.163,0,1,1,82.64,59.477,23.163,23.163,0,0,1,105.8,82.64Zm0,0" transform="translate(-52.64 -52.64)" fill="#f8fbff"/>
    <path id="Path_15892" data-name="Path 15892" d="M231.789,59.477a22.217,22.217,0,0,0-3.145.225,23.252,23.252,0,0,1,0,45.877,22.218,22.218,0,0,0,3.145.225c12.477,0,22.591-10.371,22.591-23.163s-10.115-23.163-22.591-23.163Zm0,0" transform="translate(-201.218 -52.64)" fill="#e4eaf7"/>
    <path id="Path_15893" data-name="Path 15893" d="M205.412,123.723H192.677l1.728-4.22a3.915,3.915,0,0,0-.647-4.36,1.813,1.813,0,0,0-2.862.255l-5.887,9.731a1.2,1.2,0,0,1-.557.465v14.643h0a1.211,1.211,0,0,1,.388.064l4.682,1.6a17.451,17.451,0,0,0,5.63.933H202.7a1.809,1.809,0,0,0,1.81-1.81v-1.157a1.809,1.809,0,0,0-1.81-1.81h1.16a1.81,1.81,0,0,0,1.81-1.81v-1.157a1.81,1.81,0,0,0-1.81-1.81h.922a1.809,1.809,0,0,0,1.81-1.81V130.31a1.81,1.81,0,0,0-1.81-1.81h.631a1.81,1.81,0,0,0,1.81-1.81v-1.158a1.81,1.81,0,0,0-1.81-1.81Zm0,0" transform="translate(-162.578 -100.898)" fill="#ffceb6"/>
    <path id="Path_15894" data-name="Path 15894" d="M205.642,287.724H195.155a17.452,17.452,0,0,1-5.63-.934l-5.072-1.411v6.041h0a1.2,1.2,0,0,1,.388.064l4.682,1.6a17.451,17.451,0,0,0,5.63.933H202.7a1.809,1.809,0,0,0,1.81-1.81v-1.157a1.809,1.809,0,0,0-1.81-1.81h1.16A1.809,1.809,0,0,0,205.642,287.724Zm0,0" transform="translate(-162.606 -251.826)" fill="#edbda6"/>
    <path id="Path_15895" data-name="Path 15895" d="M140.1,215.737h-3.819a.911.911,0,0,1-.912-.911v-15.95a.911.911,0,0,1,.916-.911l3.819.027a.911.911,0,0,1,.907.912v15.922a.911.911,0,0,1-.912.911Zm0,0" transform="translate(-119.478 -174.574)" fill="#fc477e"/>
    <path id="Path_15896" data-name="Path 15896" d="M135.375,303.234a.911.911,0,0,0,.912.911h3.819a.911.911,0,0,0,.912-.911v-5.378h-5.642Zm0,0" transform="translate(-119.479 -262.871)" fill="#d82665"/>
  </g>
  <g id="badge_5_" data-name="badge (5)">
    <path id="Path_15901" data-name="Path 15901" d="M160.713,123.839v-1.124a2.622,2.622,0,0,0-2.619-2.619H147.017l1.181-2.884a4.635,4.635,0,0,0-.782-5.167,2.622,2.622,0,0,0-4.139.369l-.011.017-5.2,8.588a1.737,1.737,0,0,0-1.195-.485l-3.709-.027h-.01a1.746,1.746,0,0,0-1.746,1.747v15.483a1.749,1.749,0,0,0,1.747,1.747h3.707a1.75,1.75,0,0,0,1.706-1.371l3.824,1.3a17.756,17.756,0,0,0,5.743.952h7.323a2.622,2.622,0,0,0,2.619-2.619v-1.124a2.605,2.605,0,0,0-.286-1.19,2.621,2.621,0,0,0,1.412-2.324V131.99a2.607,2.607,0,0,0-.34-1.291,2.62,2.62,0,0,0,1.235-2.223v-1.123a2.6,2.6,0,0,0-.424-1.428,2.617,2.617,0,0,0,1.037-2.086Zm-1.724,0a.9.9,0,0,1-.894.894h-6.6a.862.862,0,0,0,0,1.724h5.988a.9.9,0,0,1,.895.894v1.124a.9.9,0,0,1-.895.895h-5.988a.862.862,0,0,0,0,1.724h5.093a.9.9,0,0,1,.894.894v1.123a.9.9,0,0,1-.894.895h-5.093a.862.862,0,0,0,0,1.724h3.967a.9.9,0,0,1,.894.895v1.123a.9.9,0,0,1-.894.895h-7.323a16.045,16.045,0,0,1-5.186-.859l-4.34-1.48v-7.343a.862.862,0,1,0-1.724,0v8.776a.023.023,0,0,1-.023.022h-3.707a.023.023,0,0,1-.023-.022V122.255a.02.02,0,0,1,.007-.016.018.018,0,0,1,.014-.006l3.709.026a.023.023,0,0,1,.022.023v3.181a.862.862,0,1,0,1.724,0V123.25a2.019,2.019,0,0,0,.405-.463l.01-.017,5.709-9.436a.9.9,0,0,1,1.413-.119,2.922,2.922,0,0,1,.485,3.272c-.008.016-.015.032-.022.049l-1.677,4.1a.862.862,0,0,0,.8,1.189h12.362a.9.9,0,0,1,.895.895Zm0,0" transform="translate(-115.72 -97.926)" fill="#635e5e"/>
    <path id="Path_15902" data-name="Path 15902" d="M30,60a5.7,5.7,0,0,1-4.719-2.453,4,4,0,0,0-4.969-1.331A5.765,5.765,0,0,1,12.14,51.5,4,4,0,0,0,8.5,47.86a5.765,5.765,0,0,1-4.719-8.173,4,4,0,0,0-1.331-4.969,5.765,5.765,0,0,1,0-9.437,4,4,0,0,0,1.331-4.969A5.765,5.765,0,0,1,8.5,12.14,4,4,0,0,0,12.14,8.5a5.765,5.765,0,0,1,8.173-4.719,4,4,0,0,0,4.969-1.332,5.766,5.766,0,0,1,9.437,0h0a4,4,0,0,0,4.969,1.331A5.765,5.765,0,0,1,47.86,8.5,4,4,0,0,0,51.5,12.14a5.765,5.765,0,0,1,4.719,8.173,4,4,0,0,0,1.331,4.969,5.765,5.765,0,0,1,0,9.437,4,4,0,0,0-1.331,4.969A5.765,5.765,0,0,1,51.5,47.86,4,4,0,0,0,47.86,51.5a5.765,5.765,0,0,1-8.173,4.719,4,4,0,0,0-4.969,1.332A5.7,5.7,0,0,1,30,60Zm-8-5.917a5.759,5.759,0,0,1,4.718,2.455,4.008,4.008,0,0,0,6.56,0,5.759,5.759,0,0,1,7.148-1.915,4.008,4.008,0,0,0,5.681-3.28,5.76,5.76,0,0,1,5.233-5.233,4.007,4.007,0,0,0,3.28-5.681,5.759,5.759,0,0,1,1.915-7.148,4.008,4.008,0,0,0,0-6.56,5.76,5.76,0,0,1-1.916-7.148,4.007,4.007,0,0,0-3.28-5.681,5.76,5.76,0,0,1-5.233-5.233,4.008,4.008,0,0,0-5.681-3.28A5.759,5.759,0,0,1,33.28,3.462h0a4.007,4.007,0,0,0-6.559,0,5.76,5.76,0,0,1-7.148,1.915,4.008,4.008,0,0,0-5.681,3.28,5.76,5.76,0,0,1-5.233,5.233,4.008,4.008,0,0,0-3.28,5.681A5.759,5.759,0,0,1,3.463,26.72a4.008,4.008,0,0,0,0,6.56,5.759,5.759,0,0,1,1.915,7.148,4.008,4.008,0,0,0,3.28,5.681,5.76,5.76,0,0,1,5.233,5.233,4.008,4.008,0,0,0,5.681,3.28A5.755,5.755,0,0,1,22,54.083Zm0,0" transform="translate(0 0)" fill="#635e5e"/>
    <path id="Path_15903" data-name="Path 15903" d="M81.623,285.6a23.611,23.611,0,0,1-15.894-6.086,22.5,22.5,0,0,1-7.4-14.891.884.884,0,0,1,1.763-.135,20.8,20.8,0,0,0,6.837,13.763,22,22,0,0,0,29.384,0,20.793,20.793,0,0,0,6.838-13.763.884.884,0,0,1,1.762.135,22.5,22.5,0,0,1-7.4,14.891A23.61,23.61,0,0,1,81.623,285.6Zm0,0" transform="translate(-51.623 -232.238)" fill="#635e5e"/>
    <path id="Path_15904" data-name="Path 15904" d="M59.217,79.637l-.07,0a.869.869,0,0,1-.812-.927,22.5,22.5,0,0,1,7.4-14.888,23.8,23.8,0,0,1,31.779-.006,22.5,22.5,0,0,1,7.4,14.876.884.884,0,0,1-1.762.137,20.8,20.8,0,0,0-6.844-13.749,22,22,0,0,0-29.374.005A20.8,20.8,0,0,0,60.1,78.843a.875.875,0,0,1-.88.794Zm0,0" transform="translate(-51.626 -51.098)" fill="#635e5e"/>
  </g>
</svg>
