<svg id="Component_25_8" data-name="Component 25 – 8" xmlns="http://www.w3.org/2000/svg" width="60" height="60" viewBox="0 0 60 60">
  <g id="badge_2_" data-name="badge (2)">
    <path id="Path_15883" data-name="Path 15883" d="M34.121,2.142a5.034,5.034,0,0,0,6.242,1.672A5.034,5.034,0,0,1,47.5,7.934,5.034,5.034,0,0,0,52.067,12.5a5.033,5.033,0,0,1,4.119,7.136,5.035,5.035,0,0,0,1.673,6.242,5.034,5.034,0,0,1,0,8.24,5.035,5.035,0,0,0-1.673,6.242A5.034,5.034,0,0,1,52.067,47.5,5.034,5.034,0,0,0,47.5,52.068a5.033,5.033,0,0,1-7.136,4.119,5.035,5.035,0,0,0-6.242,1.673,5.034,5.034,0,0,1-8.24,0,5.035,5.035,0,0,0-6.242-1.673A5.033,5.033,0,0,1,12.5,52.068,5.034,5.034,0,0,0,7.934,47.5a5.034,5.034,0,0,1-4.12-7.136,5.034,5.034,0,0,0-1.672-6.242,5.034,5.034,0,0,1,0-8.24,5.034,5.034,0,0,0,1.672-6.242A5.034,5.034,0,0,1,7.934,12.5,5.034,5.034,0,0,0,12.5,7.934a5.034,5.034,0,0,1,7.136-4.12,5.034,5.034,0,0,0,6.242-1.672,5.034,5.034,0,0,1,8.24,0Zm0,0" transform="translate(-0.001 -0.001)" fill="#41b2ba"/>
    <path id="Path_15884" data-name="Path 15884" d="M229.54,2.109a4.938,4.938,0,0,0,6.123,1.64,4.971,4.971,0,0,1,1.4-.415,4.943,4.943,0,0,1-1.234-1.225,4.941,4.941,0,0,0-7.186-.972,4.983,4.983,0,0,1,.9.972Zm0,0" transform="translate(-201.765 -0.008)" fill="#41b2ba"/>
    <path id="Path_15885" data-name="Path 15885" d="M105.8,82.64A23.163,23.163,0,1,1,82.64,59.477,23.163,23.163,0,0,1,105.8,82.64Zm0,0" transform="translate(-52.64 -52.64)" fill="#f8fbff"/>
    <path id="Path_15886" data-name="Path 15886" d="M231.789,59.477a22.217,22.217,0,0,0-3.145.225,23.252,23.252,0,0,1,0,45.877,22.218,22.218,0,0,0,3.145.225c12.477,0,22.591-10.371,22.591-23.163s-10.115-23.163-22.591-23.163Zm0,0" transform="translate(-201.218 -52.64)" fill="#e4eaf7"/>
    <path id="Path_15887" data-name="Path 15887" d="M143.369,124.026l3.442,8.815,9.77.428a1.114,1.114,0,0,1,.674,2l-7.643,5.877,2.6,9.08a1.155,1.155,0,0,1-1.764,1.234l-8.166-5.183-8.166,5.183a1.155,1.155,0,0,1-1.764-1.234l2.6-9.08-7.643-5.877a1.114,1.114,0,0,1,.673-2l9.771-.428,3.442-8.815a1.181,1.181,0,0,1,2.181,0Zm0,0" transform="translate(-112.278 -108.594)" fill="#fcdf6c"/>
    <path id="Path_15888" data-name="Path 15888" d="M275.744,208.337l-4.841-.22-8.156,6.512,2.43,8.826,4.658,3.07a1.122,1.122,0,0,0,1.7-1.234l-2.5-9.08,7.36-5.877a1.122,1.122,0,0,0-.649-2Zm0,0" transform="translate(-231.772 -183.514)" fill="#f4b425"/>
  </g>
  <g id="badge_6_" data-name="badge (6)">
    <path id="Path_15905" data-name="Path 15905" d="M57.547,25.281a4,4,0,0,1-1.331-4.969A5.765,5.765,0,0,0,51.5,12.139,4,4,0,0,1,47.86,8.5a5.765,5.765,0,0,0-8.173-4.719,4,4,0,0,1-4.969-1.331,5.765,5.765,0,0,0-9.437,0,4,4,0,0,1-4.969,1.331A5.765,5.765,0,0,0,12.14,8.5,4,4,0,0,1,8.5,12.139a5.765,5.765,0,0,0-4.719,8.173,4,4,0,0,1-1.331,4.969,5.765,5.765,0,0,0,0,9.437,4,4,0,0,1,1.331,4.969A5.765,5.765,0,0,0,8.5,47.86,4,4,0,0,1,12.14,51.5a5.765,5.765,0,0,0,8.173,4.719,4,4,0,0,1,4.969,1.331,5.765,5.765,0,0,0,9.437,0,4,4,0,0,1,4.969-1.331A5.765,5.765,0,0,0,47.86,51.5,4,4,0,0,1,51.5,47.86a5.765,5.765,0,0,0,4.719-8.173,4,4,0,0,1,1.331-4.969,5.765,5.765,0,0,0,0-9.437Zm-1.01,8a5.76,5.76,0,0,0-1.915,7.148,4.008,4.008,0,0,1-3.28,5.681,5.76,5.76,0,0,0-5.233,5.233,4.008,4.008,0,0,1-5.681,3.28,5.759,5.759,0,0,0-7.148,1.915,4.008,4.008,0,0,1-6.56,0,5.759,5.759,0,0,0-7.148-1.915,4.007,4.007,0,0,1-5.681-3.28,5.76,5.76,0,0,0-5.233-5.233,4.008,4.008,0,0,1-3.28-5.681,5.759,5.759,0,0,0-1.915-7.148,4.008,4.008,0,0,1,0-6.56,5.76,5.76,0,0,0,1.915-7.148,4.008,4.008,0,0,1,3.28-5.681A5.76,5.76,0,0,0,13.89,8.657a4.008,4.008,0,0,1,5.681-3.28A5.76,5.76,0,0,0,26.72,3.462a4.008,4.008,0,0,1,6.56,0l.719-.5-.719.5a5.76,5.76,0,0,0,7.148,1.916,4.007,4.007,0,0,1,5.681,3.28,5.76,5.76,0,0,0,5.233,5.233,4.008,4.008,0,0,1,3.28,5.681,5.759,5.759,0,0,0,1.915,7.148,4.008,4.008,0,0,1,0,6.56Zm0,0" transform="translate(0 0)" fill="#635e5e"/>
    <path id="Path_15906" data-name="Path 15906" d="M104.107,263.7a.877.877,0,0,0-.951.792,20.8,20.8,0,0,1-6.837,13.763,22,22,0,0,1-29.384,0A20.793,20.793,0,0,1,60.1,264.488a.884.884,0,0,0-1.762.135,22.5,22.5,0,0,0,7.4,14.891,23.8,23.8,0,0,0,31.789,0,22.5,22.5,0,0,0,7.4-14.891.869.869,0,0,0-.812-.927Zm0,0" transform="translate(-51.626 -232.238)" fill="#635e5e"/>
    <path id="Path_15907" data-name="Path 15907" d="M59.146,79.635l.07,0a.875.875,0,0,0,.88-.794,20.8,20.8,0,0,1,6.839-13.76,22,22,0,0,1,29.374-.005,20.8,20.8,0,0,1,6.844,13.749.884.884,0,0,0,1.762-.137,22.5,22.5,0,0,0-7.4-14.876,23.8,23.8,0,0,0-31.779.006,22.5,22.5,0,0,0-7.4,14.888.869.869,0,0,0,.812.927Zm0,0" transform="translate(-51.626 -51.098)" fill="#635e5e"/>
    <path id="Path_15908" data-name="Path 15908" d="M154.73,130.713a2,2,0,0,0-1.833-1.346l-8.885-.39-3.13-8.025a2.051,2.051,0,0,0-3.788,0l-3.13,8.025-8.886.39a2,2,0,0,0-1.833,1.346,1.893,1.893,0,0,0,.662,2.127l6.95,5.35-2.361,8.266a1.9,1.9,0,0,0,.762,2.1,2.069,2.069,0,0,0,2.3.05l7.426-4.719,7.426,4.719a2.071,2.071,0,0,0,2.3-.051,1.9,1.9,0,0,0,.762-2.1l-2.361-8.266,6.95-5.35A1.893,1.893,0,0,0,154.73,130.713Zm-1.778.78-7.411,5.7a.844.844,0,0,0-.3.9l2.517,8.814a.205.205,0,0,1-.089.243.223.223,0,0,1-.267.006l-7.918-5.032a.923.923,0,0,0-.985,0l-7.918,5.032a.223.223,0,0,1-.267-.006.206.206,0,0,1-.089-.243l2.517-8.814a.844.844,0,0,0-.3-.9l-7.411-5.7a.2.2,0,0,1-.077-.247.216.216,0,0,1,.212-.156l9.474-.416a.891.891,0,0,0,.8-.558l3.338-8.557a.238.238,0,0,1,.44,0l3.338,8.557a.893.893,0,0,0,.8.558l9.474.416a.217.217,0,0,1,.213.156.2.2,0,0,1-.077.247Zm0,0" transform="translate(-108.987 -105.398)" fill="#635e5e"/>
  </g>
</svg>
